<?xml version="1.0" standalone="no"?>
<!DOCTYPE svg PUBLIC "-//W3C//DTD SVG 20010904//EN"
 "http://www.w3.org/TR/2001/REC-SVG-20010904/DTD/svg10.dtd">
<svg version="1.0" xmlns="http://www.w3.org/2000/svg"
 width="225.000000pt" height="225.000000pt" viewBox="0 0 225.000000 225.000000"
 preserveAspectRatio="xMidYMid meet">

<g transform="translate(0.000000,225.000000) scale(0.100000,-0.100000)"
fill="#000000" stroke="none">
<path d="M1043 1756 c-49 -16 -376 -248 -409 -292 -48 -62 -54 -100 -54 -339
0 -239 6 -277 54 -339 36 -47 360 -276 413 -292 111 -34 162 -15 374 137 180
130 209 158 234 228 22 63 22 469 0 532 -25 70 -54 98 -234 228 -212 152 -266
171 -378 137z m124 -95 c48 -14 303 -201 303 -222 0 -19 -231 -192 -287 -216
-72 -30 -105 -17 -275 106 -79 57 -128 99 -128 110 0 11 52 54 135 115 160
115 185 126 252 107z m-313 -420 c169 -123 176 -126 271 -126 95 0 99 2 272
126 175 126 167 131 171 -106 3 -218 0 -244 -33 -283 -34 -41 -329 -252 -368
-263 -63 -18 -99 -3 -259 113 -84 60 -164 119 -177 131 -46 42 -51 73 -51 285
0 109 3 202 7 205 17 18 54 0 167 -82z"/>
<path d="M878 1028 c-21 -12 -38 -30 -38 -40 0 -15 9 -17 64 -16 53 1 72 -4
110 -26 41 -24 47 -25 53 -10 15 39 -65 114 -121 114 -17 0 -48 -10 -68 -22z"/>
<path d="M1240 1028 c-39 -28 -65 -70 -57 -92 6 -15 12 -14 53 10 38 22 57 27
110 26 55 -1 64 1 64 17 0 22 -68 61 -107 61 -17 0 -45 -10 -63 -22z"/>
</g>
</svg>
