<?xml version="1.0" standalone="no"?>
<!DOCTYPE svg PUBLIC "-//W3C//DTD SVG 20010904//EN"
 "http://www.w3.org/TR/2001/REC-SVG-20010904/DTD/svg10.dtd">
<svg version="1.0" xmlns="http://www.w3.org/2000/svg"
 width="828.000000pt" height="828.000000pt" viewBox="0 0 828.000000 828.000000"
 preserveAspectRatio="xMidYMid meet">

<g transform="translate(0.000000,828.000000) scale(0.100000,-0.100000)"
fill="#000000" stroke="none">
<path d="M3950 6506 c-95 -20 -185 -52 -270 -97 -79 -41 -1147 -804 -1239
-885 -153 -135 -273 -353 -313 -569 -19 -101 -19 -1529 0 -1630 17 -92 47
-185 88 -267 97 -200 180 -280 589 -573 176 -126 433 -310 570 -409 376 -270
477 -311 765 -311 141 0 178 3 250 23 168 45 248 95 835 517 303 218 576 419
609 447 157 137 278 354 318 573 10 53 13 250 13 815 0 785 -1 809 -47 950
-11 36 -36 95 -54 132 -106 217 -166 271 -839 754 -583 419 -667 471 -830 515
-102 27 -346 36 -445 15z m306 -391 c42 -8 107 -30 143 -48 103 -52 972 -682
994 -720 22 -41 22 -64 -2 -103 -23 -37 -894 -668 -986 -714 -88 -44 -157 -60
-265 -60 -108 0 -177 16 -265 60 -51 25 -911 636 -966 686 -11 10 -24 34 -30
55 -22 72 -16 78 486 439 253 182 487 343 520 359 66 33 175 59 247 60 25 1
81 -6 124 -14z m-1131 -1546 c491 -353 540 -386 650 -429 122 -48 216 -65 365
-65 150 0 243 17 370 67 108 43 137 62 645 427 436 313 462 331 503 331 37 0
50 -6 78 -34 l34 -34 0 -704 c0 -669 -1 -709 -20 -782 -27 -107 -74 -190 -150
-266 -41 -41 -264 -208 -594 -445 -292 -209 -547 -391 -569 -404 -58 -35 -141
-61 -233 -73 -69 -10 -96 -9 -171 6 -48 9 -115 31 -148 47 -93 46 -1118 785
-1200 865 -51 50 -81 90 -108 145 -68 138 -68 137 -65 920 l3 701 33 29 c25
22 42 29 75 29 40 0 71 -20 502 -331z"/>
<path d="M3322 3846 c-110 -42 -225 -128 -242 -182 -16 -47 2 -92 43 -109 24
-10 40 -10 81 1 86 24 221 28 305 10 86 -18 214 -78 289 -136 74 -57 130 -53
151 13 15 44 3 80 -54 169 -65 100 -149 179 -232 219 -61 29 -79 33 -173 36
-92 3 -113 0 -168 -21z"/>
<path d="M4670 3852 c-122 -40 -211 -121 -304 -276 -44 -74 -49 -131 -13 -164
32 -30 72 -28 116 7 64 51 138 91 223 123 74 28 95 31 198 32 70 1 136 -5 170
-13 30 -8 66 -14 79 -13 56 4 86 74 56 131 -20 39 -119 114 -205 155 -57 27
-77 31 -165 33 -76 2 -113 -1 -155 -15z"/>
</g>
</svg>
