<?xml version="1.0" standalone="no"?>
<!DOCTYPE svg PUBLIC "-//W3C//DTD SVG 20010904//EN"
 "http://www.w3.org/TR/2001/REC-SVG-20010904/DTD/svg10.dtd">
<svg version="1.0" xmlns="http://www.w3.org/2000/svg"
 width="216.000000pt" height="216.000000pt" viewBox="0 0 216.000000 216.000000"
 preserveAspectRatio="xMidYMid meet">

<g transform="translate(0.000000,216.000000) scale(0.100000,-0.100000)"
fill="#000000" stroke="none">
<path d="M560 1969 c-78 -14 -171 -60 -231 -116 -61 -56 -93 -105 -122 -182
-21 -54 -22 -75 -25 -558 -2 -325 1 -523 8 -560 32 -178 174 -325 348 -362 35
-7 219 -11 545 -11 534 0 551 2 659 56 110 56 203 184 228 313 6 32 10 247 10
530 0 508 -5 562 -51 652 -44 88 -190 210 -264 221 -11 2 -27 8 -35 13 -20 13
-997 16 -1070 4z m603 -382 c49 -21 283 -194 317 -235 42 -51 53 -117 48 -306
-5 -221 -6 -223 -213 -372 -72 -51 -143 -98 -158 -103 -40 -15 -121 -14 -161
3 -50 21 -282 192 -316 234 -42 51 -53 117 -48 306 5 220 7 223 203 364 66 48
135 94 154 104 42 21 128 24 174 5z"/>
<path d="M1035 1506 c-45 -20 -235 -158 -235 -171 0 -6 53 -49 117 -96 160
-114 165 -114 326 -1 64 46 117 87 117 90 0 14 -18 30 -110 96 -91 66 -145 96
-172 96 -7 -1 -27 -7 -43 -14z"/>
<path d="M732 1238 c-18 -18 -16 -308 2 -352 10 -24 49 -58 142 -126 160 -115
189 -129 242 -108 21 8 96 57 166 108 94 68 132 102 142 126 20 49 20 337 -1
354 -12 10 -33 -2 -119 -63 -137 -99 -160 -110 -226 -110 -67 0 -93 13 -226
109 -56 41 -103 74 -106 74 -2 0 -9 -5 -16 -12z m267 -243 c58 -50 53 -100 -7
-63 -26 16 -51 22 -89 22 -45 -1 -53 2 -53 17 0 10 12 25 28 33 42 23 86 20
121 -9z m281 10 c17 -9 30 -24 30 -34 0 -15 -8 -18 -53 -17 -38 0 -63 -6 -89
-22 -60 -37 -65 13 -7 63 35 29 76 32 119 10z"/>
</g>
</svg>
